<?xml version="1.0" encoding="UTF-8" standalone="no"?>
<!-- Created with Inkscape (http://www.inkscape.org/) -->

<svg
   xmlns:dc="http://purl.org/dc/elements/1.1/"
   xmlns:cc="http://creativecommons.org/ns#"
   xmlns:rdf="http://www.w3.org/1999/02/22-rdf-syntax-ns#"
   xmlns:svg="http://www.w3.org/2000/svg"
   xmlns="http://www.w3.org/2000/svg"
   xmlns:sodipodi="http://sodipodi.sourceforge.net/DTD/sodipodi-0.dtd"
   xmlns:inkscape="http://www.inkscape.org/namespaces/inkscape"
   version="1.1"
   id="svg2"
   xml:space="preserve"
   width="4096"
   height="4096"
   viewBox="0 0 4096 4096"
   sodipodi:docname="hp-logo.svg"
   inkscape:export-filename="G:\Users\suitedoalex\sites\hp-logo-0.png"
   inkscape:export-xdpi="96"
   inkscape:export-ydpi="96"
   inkscape:version="0.92.4 (5da689c313, 2019-01-14)"><metadata
     id="metadata8"><rdf:RDF><cc:Work
         rdf:about=""><dc:format>image/svg+xml</dc:format><dc:type
           rdf:resource="http://purl.org/dc/dcmitype/StillImage" /><dc:title></dc:title></cc:Work></rdf:RDF></metadata><defs
     id="defs6" /><sodipodi:namedview
     pagecolor="#ffffff"
     bordercolor="#666666"
     borderopacity="1"
     objecttolerance="10"
     gridtolerance="10"
     guidetolerance="10"
     inkscape:pageopacity="0"
     inkscape:pageshadow="2"
     inkscape:window-width="1600"
     inkscape:window-height="837"
     id="namedview4"
     showgrid="false"
     inkscape:zoom="0.055871212"
     inkscape:cx="5644.6502"
     inkscape:cy="1850.1141"
     inkscape:window-x="-8"
     inkscape:window-y="-8"
     inkscape:window-maximized="1"
     inkscape:current-layer="g10" /><g
     id="g10"
     inkscape:groupmode="layer"
     inkscape:label="hp-logo"
     transform="matrix(1.3333333,0,0,-1.3333333,0,4096)"><g
       id="g14"
       transform="matrix(41.787813,0,0,41.787813,2634.8942,1536)"
       style="fill:#0096d6;fill-opacity:1"
       inkscape:export-filename="G:\Users\suitedoalex\sites\hp-logo-3.png"
       inkscape:export-xdpi="13.104083"
       inkscape:export-ydpi="13.104083"><path
         d="m 0,0 c 0,14.524 -11.773,26.297 -26.297,26.297 -0.396,0 -0.79,-0.01 -1.182,-0.028 l -5.379,-14.784 h 4.685 c 2.787,0 4.289,-2.146 3.335,-4.767 l -6.635,-18.234 -5.571,10e-4 7.12,19.544 h -4.189 l -7.12,-19.544 h -5.573 l 8.372,23 h 10e-4 l 5.036,13.841 C -44.471,22.228 -52.594,12.063 -52.594,0 c 0,-12.421 8.613,-22.83 20.192,-25.583 l 4.88,13.411 h 0.004 l 8.609,23.657 h 10.261 c 2.79,0 4.291,-2.146 3.337,-4.767 l -5.83,-16.015 c -0.444,-1.22 -1.869,-2.218 -3.167,-2.218 h -7.396 l -5.374,-14.77 c 0.259,-0.007 0.52,-0.012 0.781,-0.012 C -11.773,-26.297 0,-14.523 0,0"
         style="fill:#0096d6;fill-opacity:1;fill-rule:nonzero;stroke:none"
         id="path16"
         inkscape:connector-curvature="0" /></g><g
       id="g18"
       transform="matrix(41.787813,0,0,41.787813,2200.9272,1872.0994)"
       style="fill:#0096d6;fill-opacity:1"
       inkscape:export-filename="G:\Users\suitedoalex\sites\hp-logo-3.png"
       inkscape:export-xdpi="13.104083"
       inkscape:export-ydpi="13.104083"><path
         d="m 0,0 h -4.187 l -5.864,-16.089 h 4.187 L 0,0"
         style="fill:#0096d6;fill-opacity:1;fill-rule:nonzero;stroke:none"
         id="path20"
         inkscape:connector-curvature="0" /></g></g></svg>