<svg xmlns="http://www.w3.org/2000/svg" viewBox="0 0 500 500"><g id="freepik--background-complete--inject-57"><rect y="382.4" width="500" height="0.25" style="fill:#ebebeb"></rect><rect x="416.78" y="398.49" width="33.12" height="0.25" style="fill:#ebebeb"></rect><rect x="322.53" y="401.21" width="8.69" height="0.25" style="fill:#ebebeb"></rect><rect x="396.59" y="389.21" width="19.19" height="0.25" style="fill:#ebebeb"></rect><rect x="52.46" y="390.89" width="43.19" height="0.25" style="fill:#ebebeb"></rect><rect x="104.56" y="390.89" width="6.33" height="0.25" style="fill:#ebebeb"></rect><rect x="131.47" y="395.11" width="93.68" height="0.25" style="fill:#ebebeb"></rect><path d="M237,337.8H43.91a5.71,5.71,0,0,1-5.7-5.71V60.66A5.71,5.71,0,0,1,43.91,55H237a5.71,5.71,0,0,1,5.71,5.71V332.09A5.71,5.71,0,0,1,237,337.8ZM43.91,55.2a5.46,5.46,0,0,0-5.45,5.46V332.09a5.46,5.46,0,0,0,5.45,5.46H237a5.47,5.47,0,0,0,5.46-5.46V60.66A5.47,5.47,0,0,0,237,55.2Z" style="fill:#ebebeb"></path><path d="M453.31,337.8H260.21a5.72,5.72,0,0,1-5.71-5.71V60.66A5.72,5.72,0,0,1,260.21,55h193.1A5.71,5.71,0,0,1,459,60.66V332.09A5.71,5.71,0,0,1,453.31,337.8ZM260.21,55.2a5.47,5.47,0,0,0-5.46,5.46V332.09a5.47,5.47,0,0,0,5.46,5.46h193.1a5.47,5.47,0,0,0,5.46-5.46V60.66a5.47,5.47,0,0,0-5.46-5.46Z" style="fill:#ebebeb"></path><circle cx="140.46" cy="131.87" r="41.55" style="fill:#f5f5f5"></circle><path d="M66.31,123.68a6.77,6.77,0,0,1,6.76-6.77,6.62,6.62,0,0,1,2,.29A14.3,14.3,0,0,1,91.83,101a12.53,12.53,0,0,1,23.23,6.33h.21a11.55,11.55,0,0,1,0,23.09H72.88A6.77,6.77,0,0,1,66.31,123.68Z" style="fill:#ebebeb"></path><path d="M156.64,166.93a6.77,6.77,0,0,1,6.77-6.77,6.84,6.84,0,0,1,1.94.29,15.79,15.79,0,0,1-.15-2.08,14.31,14.31,0,0,1,17-14.08,12.53,12.53,0,0,1,23.23,6.33h.21a11.55,11.55,0,0,1,0,23.09H163.22A6.77,6.77,0,0,1,156.64,166.93Z" style="fill:#ebebeb"></path><path d="M42.4,343.56a12.5,12.5,0,0,1,16.1-12,27.12,27.12,0,0,1-.28-3.84,26.47,26.47,0,0,1,31.38-26,23.15,23.15,0,0,1,42.93,11.7h.39a21.34,21.34,0,0,1,0,42.68H54.54l0,0A12.51,12.51,0,0,1,42.4,343.56Z" style="fill:#ebebeb"></path><path d="M265.6,388.48A20.36,20.36,0,0,1,291.85,369a43.14,43.14,0,0,1,50.68-48.7,37.74,37.74,0,0,1,70,19.08c.21,0,.42,0,.63,0a34.79,34.79,0,0,1,0,69.57H285.39l0,0A20.38,20.38,0,0,1,265.6,388.48Z" style="fill:#ebebeb"></path><path d="M381.81,197a6.77,6.77,0,0,1,6.77-6.77,6.6,6.6,0,0,1,1.94.29,14.34,14.34,0,0,1,14.18-16.41,15.34,15.34,0,0,1,2.64.24,12.52,12.52,0,0,1,23.22,6.34h.21a11.54,11.54,0,1,1,0,23.08H388.39A6.76,6.76,0,0,1,381.81,197Z" style="fill:#ebebeb"></path><path d="M199,251.59a6.77,6.77,0,0,1,6.76-6.77,7,7,0,0,1,2,.28,14.11,14.11,0,0,1-.15-2.07,14.36,14.36,0,0,1,17-14.09,12.52,12.52,0,0,1,23.22,6.34l.21,0a11.55,11.55,0,0,1,0,23.09H205.57A6.76,6.76,0,0,1,199,251.59Z" style="fill:#ebebeb"></path><path d="M70.22,206a4.09,4.09,0,0,1,5.26-3.92,8.67,8.67,0,0,1,8.57-9.92,8.43,8.43,0,0,1,1.6.15,7.56,7.56,0,0,1,14,3.83h.13a7,7,0,0,1,0,14H74.19A4.08,4.08,0,0,1,70.22,206Z" style="fill:#ebebeb"></path><path d="M284.49,135.28a4.09,4.09,0,0,1,4.09-4.09,4.16,4.16,0,0,1,1.18.17,8.67,8.67,0,0,1,8.57-9.92,9.22,9.22,0,0,1,1.59.15,7.57,7.57,0,0,1,14,3.83h.13a7,7,0,1,1,0,14H288.47A4.08,4.08,0,0,1,284.49,135.28Z" style="fill:#ebebeb"></path><path d="M407.83,107.77a4.09,4.09,0,0,1,4.09-4.09,4.21,4.21,0,0,1,1.18.17,8.67,8.67,0,0,1,8.57-9.92,8.4,8.4,0,0,1,1.59.15,7.57,7.57,0,0,1,14,3.83h.13a7,7,0,0,1,0,14H411.81A4.08,4.08,0,0,1,407.83,107.77Z" style="fill:#ebebeb"></path></g><g id="freepik--Shadow--inject-57"><ellipse id="freepik--path--inject-57" cx="250" cy="416.24" rx="193.89" ry="11.32" style="fill:#f5f5f5"></ellipse></g><g id="freepik--Stars--inject-57"><polygon points="263.23 107.64 443.65 107.64 281.03 112.04 364.29 113.37 267.1 119.09 263.23 107.64" style="fill:#FFC100"></polygon><polygon points="263.23 107.64 443.65 107.64 281.03 112.04 364.29 113.37 267.1 119.09 263.23 107.64" style="fill:#fff;opacity:0.8"></polygon><path d="M270.74,121.8l-6.38-1a1.47,1.47,0,0,0-1.3.44l-4.47,4.66a1.47,1.47,0,0,1-2.52-.8l-1-6.38a1.48,1.48,0,0,0-.82-1.1l-5.82-2.81a1.48,1.48,0,0,1,0-2.65l5.77-2.9a1.47,1.47,0,0,0,.79-1.12l.88-6.4a1.48,1.48,0,0,1,2.51-.84l4.54,4.58a1.5,1.5,0,0,0,1.31.42l6.36-1.15a1.48,1.48,0,0,1,1.57,2.13l-3,5.74a1.47,1.47,0,0,0,0,1.37l3,5.69A1.48,1.48,0,0,1,270.74,121.8Z" style="fill:#FFC100"></path><path d="M270.74,121.8l-6.38-1a1.47,1.47,0,0,0-1.3.44l-4.47,4.66a1.47,1.47,0,0,1-2.52-.8l-1-6.38a1.48,1.48,0,0,0-.82-1.1l-5.82-2.81a1.48,1.48,0,0,1,0-2.65l5.77-2.9a1.47,1.47,0,0,0,.79-1.12l.88-6.4a1.48,1.48,0,0,1,2.51-.84l4.54,4.58a1.5,1.5,0,0,0,1.31.42l6.36-1.15a1.48,1.48,0,0,1,1.57,2.13l-3,5.74a1.47,1.47,0,0,0,0,1.37l3,5.69A1.48,1.48,0,0,1,270.74,121.8Z" style="fill:#fff;opacity:0.4"></path><polygon points="337.37 344.51 447.06 344.51 348.2 347.18 398.81 347.99 339.73 351.47 337.37 344.51" style="fill:#FFC100"></polygon><polygon points="337.37 344.51 447.06 344.51 348.2 347.18 398.81 347.99 339.73 351.47 337.37 344.51" style="fill:#fff;opacity:0.8"></polygon><path d="M341.94,353.12l-3.88-.63a.9.9,0,0,0-.79.26l-2.71,2.83a.9.9,0,0,1-1.54-.48l-.6-3.88a.9.9,0,0,0-.49-.67l-3.54-1.71a.9.9,0,0,1,0-1.61l3.5-1.76a.91.91,0,0,0,.49-.68l.53-3.89a.9.9,0,0,1,1.53-.51l2.76,2.78a.92.92,0,0,0,.8.26l3.86-.7a.9.9,0,0,1,1,1.29l-1.8,3.49a.89.89,0,0,0,0,.84l1.85,3.46A.9.9,0,0,1,341.94,353.12Z" style="fill:#FFC100"></path><path d="M341.94,353.12l-3.88-.63a.9.9,0,0,0-.79.26l-2.71,2.83a.9.9,0,0,1-1.54-.48l-.6-3.88a.9.9,0,0,0-.49-.67l-3.54-1.71a.9.9,0,0,1,0-1.61l3.5-1.76a.91.91,0,0,0,.49-.68l.53-3.89a.9.9,0,0,1,1.53-.51l2.76,2.78a.92.92,0,0,0,.8.26l3.86-.7a.9.9,0,0,1,1,1.29l-1.8,3.49a.89.89,0,0,0,0,.84l1.85,3.46A.9.9,0,0,1,341.94,353.12Z" style="fill:#fff;opacity:0.4"></path><polygon points="120.15 69.93 229.84 69.93 130.97 72.6 181.59 73.41 122.51 76.89 120.15 69.93" style="fill:#FFC100"></polygon><polygon points="120.15 69.93 229.84 69.93 130.97 72.6 181.59 73.41 122.51 76.89 120.15 69.93" style="fill:#fff;opacity:0.8"></polygon><path d="M124.72,78.54l-3.88-.63a.89.89,0,0,0-.79.26L117.33,81a.9.9,0,0,1-1.53-.49l-.6-3.88a.9.9,0,0,0-.49-.67l-3.54-1.71a.9.9,0,0,1,0-1.61l3.5-1.76a.91.91,0,0,0,.49-.68l.53-3.89a.89.89,0,0,1,1.52-.51L120,68.59a.9.9,0,0,0,.79.26l3.87-.7a.89.89,0,0,1,1,1.29l-1.79,3.49a.89.89,0,0,0,0,.84l1.86,3.46A.9.9,0,0,1,124.72,78.54Z" style="fill:#FFC100"></path><path d="M124.72,78.54l-3.88-.63a.89.89,0,0,0-.79.26L117.33,81a.9.9,0,0,1-1.53-.49l-.6-3.88a.9.9,0,0,0-.49-.67l-3.54-1.71a.9.9,0,0,1,0-1.61l3.5-1.76a.91.91,0,0,0,.49-.68l.53-3.89a.89.89,0,0,1,1.52-.51L120,68.59a.9.9,0,0,0,.79.26l3.87-.7a.89.89,0,0,1,1,1.29l-1.79,3.49a.89.89,0,0,0,0,.84l1.86,3.46A.9.9,0,0,1,124.72,78.54Z" style="fill:#fff;opacity:0.4"></path></g><g id="freepik--Birds--inject-57"><path d="M118.34,378.19s-.59-8.6,1.19-10.62,15.29-9.43,15.29-9.43,1,1.72-1.48,3.3l2.93-.59s.6,1.78-2.24,3.16c0,0,2.51.66.73,4.88S118.34,378.19,118.34,378.19Z" style="fill:#FFC100"></path><path d="M118.34,378.19s-.59-8.6,1.19-10.62,15.29-9.43,15.29-9.43,1,1.72-1.48,3.3l2.93-.59s.6,1.78-2.24,3.16c0,0,2.51.66.73,4.88S118.34,378.19,118.34,378.19Z" style="fill:#fff;opacity:0.4;isolation:isolate"></path><path d="M107.65,376c0-4.94,6.21-5,13.46-1.56,3,1.41,8.12-3.88,12.23-6.17,6.43-3.57,17.57-4.12,28.91-5.44,0,0,1.37,1.74-2.48,3l5.15,1.24s.28,2.38-5.15,2.64c0,0,1.5,1.55.25,4.81-2.19,5.74-13.39,6.53-13.39,6.53s5.44,1.29,19-.59A22.92,22.92,0,0,1,151,387.35l-6.4-.79A24.28,24.28,0,0,1,129,388.67c-8.44-1.85-14-7.65-16.35-8.44S107.65,377.57,107.65,376Z" style="fill:#FFC100"></path><path d="M165.62,380.43A22.92,22.92,0,0,1,151,387.35l-6.4-.79A24.28,24.28,0,0,1,129,388.67a26.11,26.11,0,0,1-3.35-1c-6.57-2.39-11-6.78-13-7.46-2.37-.79-5-2.66-5-4.24,0-4.94,6.21-5,13.46-1.56,3,1.41,8.12-3.88,12.23-6.17,6.43-3.57,17.57-4.12,28.91-5.44,0,0,1.37,1.74-2.48,3l5.15,1.24s.28,2.38-5.15,2.64c0,0,1.5,1.55.25,4.81-.88,2.3-3.2,3.8-5.67,4.77a29.07,29.07,0,0,1-7.72,1.76S152.07,382.31,165.62,380.43Z" style="fill:#fff;opacity:0.6000000000000001;isolation:isolate"></path><path d="M107.83,374.66a12.16,12.16,0,0,0-3.4,1.33,13.81,13.81,0,0,0,4,1.66l.18-1.49Z" style="fill:#FFC100"></path><path d="M110.45,374.51c0,.22-.11.4-.24.4s-.25-.18-.25-.4.11-.41.25-.41S110.45,374.28,110.45,374.51Z" style="fill:#263238"></path><path d="M159.77,369.68s1.5,1.55.25,4.81c-.88,2.3-3.2,3.8-5.67,4.77L146.63,381s-12.27,2.71-18.79-1.58c0,0,6.65-4.42,8.79-7.58s22.46-5.21,25.62-9c0,0,1.37,1.74-2.48,3l5.15,1.24S165.2,369.42,159.77,369.68Z" style="opacity:0.2;isolation:isolate"></path><path d="M165.62,380.43A22.92,22.92,0,0,1,151,387.35l-6.4-.79A24.28,24.28,0,0,1,129,388.67a26.11,26.11,0,0,1-3.35-1,31.46,31.46,0,0,0,11.4-.21,23.11,23.11,0,0,0,10-5S160.75,383.13,165.62,380.43Z" style="opacity:0.2;isolation:isolate"></path><path d="M46.15,248s-.35-5.13.71-6.34S56,236.07,56,236.07s.59,1-.88,2l1.75-.36s.35,1.06-1.34,1.89c0,0,1.49.39.43,2.91S46.15,248,46.15,248Z" style="fill:#FFC100"></path><path d="M46.15,248s-.35-5.13.71-6.34S56,236.07,56,236.07s.59,1-.88,2l1.75-.36s.35,1.06-1.34,1.89c0,0,1.49.39.43,2.91S46.15,248,46.15,248Z" style="fill:#fff;opacity:0.4;isolation:isolate"></path><path d="M39.77,246.72c0-2.95,3.71-3,8-.93,1.78.84,4.84-2.32,7.3-3.68,3.83-2.13,10.48-2.46,17.25-3.25,0,0,.81,1-1.48,1.78l3.07.74s.17,1.42-3.07,1.57c0,0,.89.93.15,2.88-1.31,3.42-8,3.89-8,3.89s3.24.77,11.33-.35a13.66,13.66,0,0,1-8.74,4.13L61.82,253a14.53,14.53,0,0,1-9.29,1.26c-5-1.11-8.34-4.57-9.76-5S39.78,247.66,39.77,246.72Z" style="fill:#FFC100"></path><path d="M74.37,249.37a13.66,13.66,0,0,1-8.74,4.13L61.81,253a14.51,14.51,0,0,1-9.28,1.26,16.68,16.68,0,0,1-2-.59c-3.92-1.43-6.54-4-7.76-4.45-1.41-.47-3-1.59-3-2.53,0-2.95,3.71-3,8-.93,1.78.84,4.84-2.32,7.3-3.68,3.83-2.13,10.48-2.46,17.25-3.25,0,0,.82,1-1.48,1.78l3.07.74s.17,1.42-3.07,1.57c0,0,.89.93.15,2.87a5.57,5.57,0,0,1-3.39,2.85,17.45,17.45,0,0,1-4.6,1.05S66.28,250.49,74.37,249.37Z" style="fill:#fff;opacity:0.6000000000000001;isolation:isolate"></path><path d="M39.88,245.93a7.17,7.17,0,0,0-2,.79,8.28,8.28,0,0,0,2.41,1l.1-.89Z" style="fill:#FFC100"></path><path d="M41.45,245.83c0,.14-.07.25-.15.25s-.15-.11-.15-.25.07-.24.15-.24S41.45,245.7,41.45,245.83Z" style="fill:#263238"></path><path d="M70.88,243s.89.93.15,2.87a5.57,5.57,0,0,1-3.39,2.85L63,249.72s-7.33,1.62-11.22-.94c0,0,4-2.64,5.25-4.53s13.4-3.1,15.29-5.39c0,0,.82,1-1.48,1.78l3.07.74S74.12,242.8,70.88,243Z" style="opacity:0.2;isolation:isolate"></path><path d="M74.37,249.37a13.66,13.66,0,0,1-8.74,4.13L61.81,253a14.51,14.51,0,0,1-9.28,1.26,16.68,16.68,0,0,1-2-.59,18.87,18.87,0,0,0,6.8-.12,13.83,13.83,0,0,0,6-3S71.46,251,74.37,249.37Z" style="opacity:0.2;isolation:isolate"></path></g><g id="freepik--character-1--inject-57"><path d="M52,142.8l-10.41-5.12s-3.79-5-5.6-6.24-6.41,3.1-6.67,4.37,7.6,6.82,7.6,6.82l2.28.09L51,150.13Z" style="fill:#eec1bb"></path><path d="M94.82,152.87s-13.34-.27-19.54-2-30.89-12.45-30.89-12.45l-1.21,7.73s23.14,14.53,28.68,16,24.5,3.63,24.5,3.63Z" style="fill:#263238"></path><path d="M96.36,165.8s-7-.8-13.78-1.76c-4.33-.62-8.55-1.3-10.72-1.87-5.54-1.46-28.68-16-28.68-16l1.21-7.73s24.7,10.75,30.89,12.45,19.54,2,19.54,2l.92,7.76Z" style="fill:#fff;opacity:0.1;isolation:isolate"></path><path d="M96.36,165.8s-7-.8-13.78-1.76c3-1.72,8-4,13.16-3.41Z" style="opacity:0.2;isolation:isolate"></path><polygon points="194.51 149.58 189.4 147.13 185.16 153.84 181.27 160 186.86 163.89 190.91 156.31 194.51 149.58" style="fill:#eec1bb"></polygon><path d="M188.15,146.94c-.26.57,6.87,3.44,6.87,3.44s6.33-2.29,10.93-1.29,3.48-2.58-1.14-4.79l-11.43-5.47C190.1,137.26,190.81,141,188.15,146.94Z" style="fill:#263238"></path><path d="M199.51,150.35a1.06,1.06,0,0,1,.53.46.72.72,0,0,1-.18.81.83.83,0,0,1-.6.3,3.17,3.17,0,0,1-1.63-.58c.42.57.74,1.17.58,1.55s-.34.36-.73.36a1.2,1.2,0,0,1-.91-.4c-.74-.84-.56-2.72-.55-2.82a.11.11,0,0,1,0-.07h0l0,0h0l0,0h0l.07,0A9.7,9.7,0,0,1,199.51,150.35Zm-1.17.92a1.92,1.92,0,0,0,.89.24.44.44,0,0,0,.32-.15c.19-.23.14-.35.12-.38-.19-.43-1.64-.65-2.87-.71A8.67,8.67,0,0,0,198.34,151.27Zm-1.21,1.5a.78.78,0,0,0,.35.07c.12,0,.32,0,.36-.11.13-.32-.6-1.33-1.44-2.21a3.4,3.4,0,0,0,.47,2.06A1,1,0,0,0,197.13,152.77Z" style="fill:#FFC100"></path><polygon points="190.99 156.16 185.22 153.7 181.31 159.93 186.88 163.86 190.99 156.16" style="opacity:0.2;isolation:isolate"></polygon><path d="M190.58,158.86s-3.3,6-7.72,13.35a205.27,205.27,0,0,1-12.36,18.62l-.25.32a37.68,37.68,0,0,1-5,5.48c-4.22,3.51-11.21,4-18.18,3-7.2-1.08-14.37-3.79-18.43-6.49a44.64,44.64,0,0,1-9-7.73l5.05-13.75S137.24,175,158,183.41l.53.22,9.74-11.5L182,155.89Z" style="fill:#FFC100"></path><polygon points="181.08 156.34 190.91 159.98 191.77 158.15 182.47 154.85 181.08 156.34" style="fill:#FFC100"></polygon><path d="M170.25,191.15a37.68,37.68,0,0,1-5,5.48c-4.22,3.51-11.21,4-18.18,3a45.94,45.94,0,0,1-8.94-9.65l-8.5-1.29,8.37-2Z" style="opacity:0.2;isolation:isolate"></path><polygon points="181.08 156.34 190.91 159.98 191.77 158.15 182.47 154.85 181.08 156.34" style="opacity:0.2;isolation:isolate"></polygon><path d="M182.86,172.21a205.27,205.27,0,0,1-12.36,18.62l-13.28-5.9.78-1.52.53.22,9.74-11.5C171.88,172.05,177.24,172,182.86,172.21Z" style="opacity:0.2;isolation:isolate"></path><polygon points="227.85 173.92 225.03 169.02 217.73 172.16 211.04 175.04 213.46 181.41 221.08 177.45 227.85 173.92" style="fill:#eec1bb"></polygon><path d="M224.1,168.15c-.53.32,3.73,6.72,3.73,6.72s6.51,1.69,9.74,5.12,4.33-.16,1.77-4.6-4.52-7.82-6.34-11S229.63,164.78,224.1,168.15Z" style="fill:#263238"></path><path d="M231.55,177.38a1.11,1.11,0,0,1,.18.68.75.75,0,0,1-.62.57.83.83,0,0,1-.65-.09,3.18,3.18,0,0,1-1-1.4c0,.71-.05,1.38-.39,1.61a.71.71,0,0,1-.81-.12,1.19,1.19,0,0,1-.52-.84c-.14-1.12,1.07-2.56,1.14-2.64s0,0,.06-.05h0l.06,0H229a.13.13,0,0,1,.08,0A9.87,9.87,0,0,1,231.55,177.38Zm-1.49.11a2,2,0,0,0,.6.7.42.42,0,0,0,.34.05c.3-.08.32-.2.33-.24.07-.46-1-1.47-2-2.21A9.89,9.89,0,0,0,230.06,177.49Zm-1.85.54a.8.8,0,0,0,.25.27c.1.06.27.17.36.11.29-.19.26-1.44.06-2.64a3.41,3.41,0,0,0-.77,2A.81.81,0,0,0,228.21,178Z" style="fill:#FFC100"></path><polygon points="221.23 177.36 217.87 172.08 211.11 175 213.49 181.39 221.23 177.36" style="opacity:0.2;isolation:isolate"></polygon><path d="M124.65,168.8s17.85-6.66,54.28,12.88l35.06-9.6,5.38,7.28s-31.16,15.79-42.26,16.84-38.58-8.53-38.58-8.53L116.47,182Z" style="fill:#FFC100"></path><polygon points="212.38 171.63 214.48 171.63 220.44 179.47 218.34 180.69 212.38 171.63" style="fill:#FFC100"></polygon><polygon points="212.38 171.63 214.48 171.63 220.44 179.47 218.34 180.69 212.38 171.63" style="opacity:0.2;isolation:isolate"></polygon><path d="M141.73,166.78s-3.31,17.08-16.33,19.69a16.66,16.66,0,0,1-6.26.14,15.3,15.3,0,0,1-9.81-6.44,16,16,0,0,1-1.75-3l18.9-9.57,1.56-.8a50,50,0,0,1,7.42-.95C137.89,165.73,140.32,165.91,141.73,166.78Z" style="fill:#263238"></path><path d="M141.73,166.78s-3.31,17.08-16.33,19.69a16.66,16.66,0,0,1-6.26.14,15.3,15.3,0,0,1-9.81-6.44,16,16,0,0,1-1.75-3l18.9-9.57,1.56-.8a50,50,0,0,1,7.42-.95C137.89,165.73,140.32,165.91,141.73,166.78Z" style="fill:#fff;opacity:0.2;isolation:isolate"></path><path d="M130.14,177.81c-3.75,4-7.25,7-11,8.8a15.3,15.3,0,0,1-9.81-6.44,195.87,195.87,0,0,1,17.15-12.59l1.56-.8a50,50,0,0,1,7.42-.95C136.33,168.27,135.37,172.22,130.14,177.81Z" style="opacity:0.2;isolation:isolate"></path><path d="M92,152.9a74.59,74.59,0,0,1,35.19-1.17s6.4,10.63,8.39,19c0,0-10.07,14.79-23.8,14.35S92,152.9,92,152.9Z" style="fill:#263238"></path><path d="M135.55,170.75s-10.07,14.79-23.8,14.35S92,152.9,92,152.9a74.59,74.59,0,0,1,35.19-1.17,93.46,93.46,0,0,1,7.52,16C135,168.74,135.32,169.76,135.55,170.75Z" style="fill:#fff;opacity:0.2;isolation:isolate"></path><path d="M134.68,167.71c-6-2.94-8.69-12.58-7.52-16A93.46,93.46,0,0,1,134.68,167.71Z" style="opacity:0.2;isolation:isolate"></path><path d="M90.35,137.89s-1-18.4,15.1-14c20.27,5.58,8.24,29.9-1.73,26.67S90.35,137.89,90.35,137.89Z" style="fill:#263238"></path><path d="M116.47,152.59s-3.66,10.21-10,9.55a9.58,9.58,0,0,1-7.76-5.7,8,8,0,0,1-.37-.92s3.23-1,1.18-3.79l7.95-6.17a21.18,21.18,0,0,0,.12,2.55c.19,1.51.59,3.19,1.52,3.62C110.88,152.54,116.47,152.59,116.47,152.59Z" style="fill:#eec1bb"></path><path d="M107.58,148.11c-.64,3.63-2.64,9.18-8.88,8.33a8,8,0,0,1-.37-.92s3.23-1,1.18-3.79l7.95-6.17A21.18,21.18,0,0,0,107.58,148.11Z" style="opacity:0.2;isolation:isolate"></path><path d="M101,128.47c-7.11-.55-9.69,3.08-10.78,10.38-1.35,9.11.18,15.77,9.23,14.5C111.7,151.62,112.79,129.37,101,128.47Z" style="fill:#eec1bb"></path><path d="M94.82,138.8a15.35,15.35,0,0,1-2.29,2.79,1.94,1.94,0,0,0,1.81.95Z" style="fill:#d4827d"></path><path d="M99.22,138.55c-.06.59.21,1.09.6,1.13s.75-.4.81-1-.21-1.08-.6-1.12S99.28,138,99.22,138.55Z" style="fill:#263238"></path><path d="M100.19,137.61,99,137S99.5,138.12,100.19,137.61Z" style="fill:#263238"></path><path d="M92,137.7c-.06.59.21,1.09.6,1.13s.75-.4.81-1-.21-1.09-.6-1.13S92,137.12,92,137.7Z" style="fill:#263238"></path><path d="M93,136.76l-1.22-.62S92.26,137.27,93,136.76Z" style="fill:#263238"></path><path d="M99.67,133.64a3.72,3.72,0,0,1,3,1.32" style="fill:none;stroke:#263238;stroke-linecap:round;stroke-linejoin:round;stroke-width:0.7246800000000001px"></path><path d="M94.52,133a3.33,3.33,0,0,0-2.88.37" style="fill:none;stroke:#263238;stroke-linecap:round;stroke-linejoin:round;stroke-width:0.7246800000000001px"></path><path d="M107.83,141.05s-2.88-6.1-2-10.57c0,0-13.66-6.84-15.45,7.41,0,0-.4-12.81,11.85-12.15s12.26,18.5,5.54,23.35C107.74,149.09,109.61,144.87,107.83,141.05Z" style="fill:#263238"></path><path d="M106.55,142.47a3.14,3.14,0,0,1,3.58-2.6c2.19.41,2.89,5-2.68,5.69C106.65,145.65,106.27,144.85,106.55,142.47Z" style="fill:#eec1bb"></path><path d="M93.48,145.34a18.65,18.65,0,0,1,.72,2.51l.46,0c2.08-.12,3-.86,3.41-1.65a2.7,2.7,0,0,0,.26-1.25,2.5,2.5,0,0,0-.1-.72,10,10,0,0,1-4,1.08Z" style="fill:#263238"></path><path d="M94.19,145.29l.23.73c2-.11,3.33-.46,3.91-1.09a2.5,2.5,0,0,0-.1-.72A10,10,0,0,1,94.19,145.29Z" style="fill:#fff"></path><path d="M94.66,147.83c2.08-.12,3-.86,3.41-1.65a6.8,6.8,0,0,0-2.29.59A2.52,2.52,0,0,0,94.66,147.83Z" style="fill:#de5753"></path><path d="M113.2,130s1-5.67,7.65-5.67,7.51,3.66,13.12,4.07,8.77-3.48,8.77-6.51c0,0,1.78,1.45.85,4.48a4.47,4.47,0,0,0,.93-3s2.63,3.77-1.19,9.7-12.65,6.18-16.17,4.51c-9-4.24-12.71-1-12.71-1Z" style="fill:#263238"></path><path d="M115,135.62s3.1-2.66,10,1.27,14.9,4,17.21-.17" style="fill:none;stroke:#263238;stroke-linecap:round;stroke-linejoin:round;stroke-width:0.5px"></path><path d="M143.65,145.61l-11.42-2s-5-3.7-7.13-4.4-5.29,4.77-5.18,6.06,9.22,4.41,9.22,4.41l2.21-.55,13.47,3.77Z" style="fill:#eec1bb"></path><path d="M138.52,144.21l-.79,7.92-10.57-.4S127.52,163,134,165.8c0,0,26.66-4.32,28.14-9.27S158.1,146.54,138.52,144.21Z" style="fill:#263238"></path><path d="M162.15,156.53c-1.48,4.95-28.14,9.27-28.14,9.27-6.49-2.78-6.85-14.07-6.85-14.07l6.55.25,4,.15.79-7.92C158.1,146.54,163.64,151.57,162.15,156.53Z" style="fill:#fff;opacity:0.1;isolation:isolate"></path><path d="M148.72,155s-7.24,1-11,0a6,6,0,0,1-4-3l4,.15Z" style="opacity:0.2;isolation:isolate"></path></g><g id="freepik--character-2--inject-57"><polygon points="275.38 340.73 274.71 334 265.23 333.82 256.53 333.68 256.03 341.8 266.27 341.24 275.38 340.73" style="fill:#eec1bb"></polygon><path d="M274.14,332.6c-.74.09.75,9.15.75,9.15s6.26,5,8.08,10.36,4.79,1.95,4.19-4.14-1.07-10.73-1.5-15.06S281.81,331.65,274.14,332.6Z" style="fill:#263238"></path><path d="M277.7,346.31a1.33,1.33,0,0,1-.14.83.89.89,0,0,1-.95.32,1,1,0,0,1-.67-.43,3.77,3.77,0,0,1-.42-2c-.33.78-.74,1.48-1.22,1.55-.31.05-.59-.13-.83-.52a1.4,1.4,0,0,1-.14-1.18c.39-1.28,2.42-2.25,2.52-2.3a.19.19,0,0,1,.1,0H276l.07,0h0l.07.07A11.76,11.76,0,0,1,277.7,346.31ZM276,345.7a2.25,2.25,0,0,0,.31,1.05.49.49,0,0,0,.34.23c.37.06.45-.07.48-.11.31-.46-.36-2.08-1.06-3.37A10.64,10.64,0,0,0,276,345.7Zm-2.28-.32a.91.91,0,0,0,.14.41c.07.12.21.32.34.3.4-.07,1-1.44,1.36-2.84-.6.34-1.58,1-1.8,1.75A.84.84,0,0,0,273.75,345.38Z" style="fill:#FFC100"></path><polygon points="266.48 341.21 265.42 333.81 256.63 333.67 256.07 341.79 266.48 341.21" style="opacity:0.2;isolation:isolate"></polygon><path d="M165.57,284.38s22.7,1.52,52.74,40.72l42.89,6.8,2.27,10.57s-41.69,1.85-54.28-2.47-37.8-28.27-37.8-28.27l-21.22-17Z" style="fill:#FFC100"></path><path d="M263.47,342.47s-41.69,1.85-54.28-2.47-37.8-28.27-37.8-28.27l-21.22-17,15.4-10.32s17.57,1.18,42.25,28.16c2.35,2.57,4.77,5.36,7.24,8.42q1.6,2,3.25,4.14l42.89,6.8Z" style="fill:#fff;opacity:0.6000000000000001;isolation:isolate"></path><path d="M215.06,321c-6.6,1.12-15.62.58-26.54-5.15l14.2-4.12,5.1.85C210.17,315.11,212.59,317.9,215.06,321Z" style="opacity:0.2;isolation:isolate"></path><polygon points="260.16 331.21 262.53 343.5 264.93 343.25 262.53 331.7 260.16 331.21" style="fill:#FFC100"></polygon><polygon points="301.36 295.27 297.97 289.41 289.26 293.16 281.27 296.61 284.16 304.22 293.26 299.49 301.36 295.27" style="fill:#eec1bb"></polygon><path d="M296.87,288.38c-.63.38,4.45,8,4.45,8s7.79,2,11.64,6.11,5.17-.2,2.11-5.5-5.4-9.34-7.57-13.11S303.48,284.35,296.87,288.38Z" style="fill:#263238"></path><path d="M305.76,299.41a1.26,1.26,0,0,1,.22.81.9.9,0,0,1-.74.68,1,1,0,0,1-.78-.12,3.79,3.79,0,0,1-1.22-1.66c0,.84-.06,1.65-.47,1.91-.26.18-.59.13-1-.13a1.46,1.46,0,0,1-.62-1c-.17-1.33,1.28-3.06,1.36-3.15l.08-.06h0l.07,0h.08l.09,0A11.42,11.42,0,0,1,305.76,299.41Zm-1.77.12a2.36,2.36,0,0,0,.71.84.51.51,0,0,0,.41.06c.36-.1.38-.24.39-.29.09-.55-1.18-1.75-2.35-2.64A10.63,10.63,0,0,0,304,299.53Zm-2.21.65a.91.91,0,0,0,.3.32c.11.08.32.2.43.13.34-.23.3-1.72.07-3.15a4,4,0,0,0-.92,2.34A1,1,0,0,0,301.78,300.18Z" style="fill:#FFC100"></path><polygon points="293.44 299.38 289.42 293.07 281.35 296.56 284.2 304.19 293.44 299.38" style="opacity:0.2;isolation:isolate"></polygon><path d="M135.31,281.24s-1.23,18.16-2.49,19.14-22.63,16.22-22.63,16.22-7.38,1.19-9.73,2.38-.36,8.5.83,9.49,11.47-4.15,11.47-4.15l1.38-2.35s23.17-13.28,25.33-14.46,7.16-21.91,7.16-21.91Z" style="fill:#eec1bb"></path><path d="M138.75,271.31c-7,2.37-5.87,19.58-5.87,19.58l12.59,4,2.76-5.34Z" style="fill:#FFC100"></path><path d="M138.75,271.31c-7,2.37-5.87,19.58-5.87,19.58l12.59,4,2.76-5.34Z" style="opacity:0.2;isolation:isolate"></path><path d="M178.07,289.16s21.33-8,64.84,15.38l41.89-11.47,6.42,8.7S254,320.63,240.74,321.88s-46.09-10.19-46.09-10.19l-26.35-6.78Z" style="fill:#FFC100"></path><path d="M178.07,289.16s21.33-8,64.84,15.38l41.89-11.47,6.42,8.7S254,320.63,240.74,321.88s-46.09-10.19-46.09-10.19l-26.35-6.78Z" style="fill:#fff;opacity:0.6000000000000001;isolation:isolate"></path><polygon points="282.87 292.54 285.37 292.54 292.49 301.9 289.99 303.35 282.87 292.54" style="fill:#FFC100"></polygon><path d="M145.47,235.38s10.87-4.23,18.81,3c5,4.54,16.72,15.54,22.85,11.79s16-7.14,20.57-2.48c0,0-7.51-.5-11.27,2.48,0,0,7.12-2,9.69,0s6.53,1.11,6.53,1.11,3.3,10.6-14.18,11.87c0,0,9,1.81,13.19-1.72,0,0,1.19,7.55-19.19,9.91s-38.13-1.11-42.3-7.18S145.47,235.38,145.47,235.38Z" style="fill:#263238"></path><path d="M198.47,286.74s-3.95,20.4-19.51,23.52a20,20,0,0,1-7.47.17,18.32,18.32,0,0,1-11.72-7.69,18.88,18.88,0,0,1-2.09-3.61l22.58-11.44,1.86-.95A59.41,59.41,0,0,1,191,285.6C193.88,285.48,196.79,285.7,198.47,286.74Z" style="fill:#FFC100"></path><path d="M184.63,299.92c-4.48,4.8-8.66,8.33-13.14,10.51a18.32,18.32,0,0,1-11.72-7.69,232,232,0,0,1,20.49-15.05l1.86-.95A59.41,59.41,0,0,1,191,285.6C192,288.52,190.87,293.24,184.63,299.92Z" style="opacity:0.2;isolation:isolate"></path><path d="M138.75,271.31a82,82,0,0,1,42.32-2.55s7.64,12.7,10,22.72c0,0-12,17.67-28.43,17.15S138.75,271.31,138.75,271.31Z" style="fill:#FFC100"></path><path d="M174.34,271.84s-15.07-10.67-26.66-.53" style="fill:none;stroke:#263238;stroke-linecap:round;stroke-linejoin:round;stroke-width:0.5px"></path><path d="M137.1,252.24s-1.25-22,18-16.68c24.2,6.66,9.84,35.71-2.07,31.86S137.1,252.24,137.1,252.24Z" style="fill:#263238"></path><path d="M168.3,269.79s-4.38,12.2-12,11.41a11.45,11.45,0,0,1-9.27-6.81,9.4,9.4,0,0,1-.44-1.1s3.86-1.15,1.41-4.53l9.49-7.37a26,26,0,0,0,.15,3.05c.22,1.8.7,3.81,1.82,4.32C161.62,269.73,168.3,269.79,168.3,269.79Z" style="fill:#eec1bb"></path><path d="M157.68,264.44c-.77,4.33-3.16,11-10.61,9.95a9.4,9.4,0,0,1-.44-1.1s3.86-1.15,1.41-4.53l9.49-7.37A26,26,0,0,0,157.68,264.44Z" style="opacity:0.2;isolation:isolate"></path><path d="M149.79,241c-8.5-.65-11.59,3.69-12.88,12.4-1.62,10.89.21,18.85,11,17.33C162.6,268.63,163.9,242.05,149.79,241Z" style="fill:#eec1bb"></path><path d="M142.44,253.32a17.82,17.82,0,0,1-2.75,3.33,2.36,2.36,0,0,0,2.17,1.14Z" style="fill:#d4827d"></path><path d="M147.69,253c-.07.7.25,1.3.72,1.35s.9-.48,1-1.18-.25-1.3-.72-1.35S147.76,252.32,147.69,253Z" style="fill:#263238"></path><path d="M148.85,251.9l-1.45-.75S148,252.5,148.85,251.9Z" style="fill:#263238"></path><path d="M139,252c-.07.69.25,1.3.72,1.34s.9-.48,1-1.17-.25-1.3-.72-1.35S139.11,251.31,139,252Z" style="fill:#263238"></path><path d="M140.2,250.88l-1.45-.74S139.37,251.49,140.2,250.88Z" style="fill:#263238"></path><path d="M148.23,247.16a4.43,4.43,0,0,1,3.59,1.57" style="fill:none;stroke:#263238;stroke-linecap:round;stroke-linejoin:round;stroke-width:0.7246800000000001px"></path><path d="M142.08,246.33a4,4,0,0,0-3.44.43" style="fill:none;stroke:#263238;stroke-linecap:round;stroke-linejoin:round;stroke-width:0.7246800000000001px"></path><path d="M158,256s-3.44-7.29-2.43-12.63c0,0-16.31-8.18-18.45,8.86,0,0-.49-15.31,14.15-14.53s14.65,22.11,6.61,27.9C157.86,265.61,160.1,260.56,158,256Z" style="fill:#263238"></path><path d="M156.45,257.7a3.73,3.73,0,0,1,4.28-3.1c2.61.49,3.45,6-3.2,6.79C156.57,261.5,156.11,260.54,156.45,257.7Z" style="fill:#eec1bb"></path><path d="M140.83,261.13a20.65,20.65,0,0,1,.86,3l.56,0c2.49-.14,3.59-1,4.07-2a3.27,3.27,0,0,0,.31-1.49,3,3,0,0,0-.12-.86,11.76,11.76,0,0,1-4.83,1.28C141.16,261.12,140.83,261.13,140.83,261.13Z" style="fill:#263238"></path><path d="M141.68,261.06l.28.88c2.34-.14,4-.55,4.67-1.3a3,3,0,0,0-.12-.86A11.76,11.76,0,0,1,141.68,261.06Z" style="fill:#fff"></path><path d="M142.25,264.1c2.49-.14,3.59-1,4.07-2a8.09,8.09,0,0,0-2.74.7A3,3,0,0,0,142.25,264.1Z" style="fill:#de5753"></path><path d="M149.91,241.63s2.35,14.24,11.17,14.74-3.41-18.25-3.41-18.25-13.95-6.53-21.63.56,1.06,13.56,1.06,13.56S137.38,241.36,149.91,241.63Z" style="fill:#263238"></path><path d="M150.07,240.64S148.3,250.11,155,254" style="fill:none;stroke:#263238;stroke-linecap:round;stroke-linejoin:round;stroke-width:0.5px"></path><path d="M147.68,271.31c-3.69,3.24,15.72,10.28,26.66.53" style="fill:none;stroke:#263238;stroke-linecap:round;stroke-linejoin:round;stroke-width:0.5px"></path><polygon points="173.86 271.83 177.57 270.32 178.8 271.31 177.84 272.56 173.86 271.83" style="fill:#FFC100"></polygon><polygon points="173.86 271.83 177.57 270.32 178.8 271.31 177.84 272.56 173.86 271.83" style="fill:#fff;opacity:0.6000000000000001;isolation:isolate"></polygon><path d="M192.5,271.81s19.18,4.4,22.67,5.32,28.25,11.55,28.25,11.55,8.85-3.36,9.86-2.37,3.22,6,3,7.23-12.68,3.63-13.29,3.22A23,23,0,0,1,240.6,294s-24.56-8.61-29.18-9.64-20.33-2.4-20.33-2.4Z" style="fill:#eec1bb"></path><path d="M181.07,268.76s0,12.48,7.45,16.81l13.27-1.19,3.54-11.29S193,269,181.07,268.76Z" style="fill:#FFC100"></path><path d="M181.07,268.76s0,12.48,7.45,16.81l13.27-1.19,3.54-11.29S193,269,181.07,268.76Z" style="opacity:0.2;isolation:isolate"></path></g><g id="freepik--character-3--inject-57"><g id="freepik--group--inject-57"><path d="M273.53,174.54v-4.87a4.83,4.83,0,0,0-6.26-4.62h0c-4.06,1.3-14,38.36-14,38.36s-6.76,7.47-6.75,9,6.49,6.18,7.5,4.79,7-5.13,7.3-7.63-2.09-5.14-2.09-5.14S270.59,180.45,273.53,174.54Z" style="fill:#b97964"></path><path d="M273.53,174.54v-4.87a4.83,4.83,0,0,0-6.26-4.62h0c-4.06,1.3-14,38.36-14,38.36s-6.76,7.47-6.75,9,6.49,6.18,7.5,4.79,7-5.13,7.3-7.63-2.09-5.14-2.09-5.14S270.59,180.45,273.53,174.54Z" style="opacity:0.1;isolation:isolate"></path><path d="M272.29,196.25l-4.89-9.93s-1.1-8.74,6.65-9.93l5.67,2Z" style="fill:#FFC100"></path><path d="M272.29,196.25l-4.89-9.93s-1.1-8.74,6.65-9.93l5.67,2Z" style="fill:#fff;opacity:0.5"></path><polygon points="396.11 304.45 393.19 312.02 375.43 305.88 378.35 298.31 396.11 304.45" style="fill:#b97964"></polygon><path d="M392.66,312.36l-2.24-9.59a.72.72,0,0,1,.38-.8l6.67-3.2a1.2,1.2,0,0,1,1.59.58,1.06,1.06,0,0,1,.09.25c.67,3.11,1,5.42,1.92,9.31.56,2.41,2.51,9.59,3.28,12.9s-2.4,4.51-3,3.23c-2.75-5.78-5.65-9.93-7.86-11.47A2,2,0,0,1,392.66,312.36Z" style="fill:#263238"></path><path d="M394.66,314.65a2.4,2.4,0,0,1-.05,1.61,1.15,1.15,0,0,1-.91.63.57.57,0,0,1-.6-.2c-.66-.77.31-3.69.43-4a.17.17,0,0,1,.16-.13.18.18,0,0,1,.19.1A10.37,10.37,0,0,1,394.66,314.65Zm-1.36,1.56a.43.43,0,0,0,.1.23c0,.05.1.09.25.07a.82.82,0,0,0,.62-.41,4,4,0,0,0-.52-2.85A7.84,7.84,0,0,0,393.3,316.21Z" style="fill:#FFC100"></path><path d="M393.9,312.7l0,.09c-.26.91-1.63,2.9-2.5,2.93a.62.62,0,0,1-.63-.49,1.06,1.06,0,0,1,.06-.85c.53-1.08,2.75-1.8,2.86-1.84a.19.19,0,0,1,.19,0A.14.14,0,0,1,393.9,312.7ZM391.07,315l0,.09c.06.24.2.23.26.23.53,0,1.61-1.33,2-2.29a4.61,4.61,0,0,0-2.26,1.51A.73.73,0,0,0,391.07,315Z" style="fill:#FFC100"></path><polygon points="378.36 298.31 375.44 305.88 384.6 309.04 387.52 301.47 378.36 298.31" style="opacity:0.2;isolation:isolate"></polygon><path d="M386.73,299.61l-6.08,9.94s-41.9-9.66-50.46-25.45c-6.37-11.74-8.42-33.31-9.05-43.61-.22-3.56-.27-5.77-.27-5.77L315.58,213l37.86,4.29s-7.06,22.67-8.49,40.06c-.56,6.86-.25,12.89,1.72,16.39C353.63,286.09,386.73,299.61,386.73,299.61Z" style="fill:#263238"></path><path d="M353.44,217.26s-7.06,22.67-8.49,40.06a39.91,39.91,0,0,1-6.3-15c-5,.65-12.23-.64-17.51-1.86-.22-3.56-.27-5.77-.27-5.77L315.58,213Z" style="opacity:0.2;isolation:isolate"></path><polygon points="443.9 307 438.37 312.93 424.17 300.62 429.7 294.68 443.9 307" style="fill:#b97964"></polygon><path d="M437.75,313.05l1.49-9.73a.7.7,0,0,1,.66-.6l7.37-.49a1.21,1.21,0,0,1,1.27,1.13,1.18,1.18,0,0,1,0,.26c-.53,3.14-1.08,5.41-1.68,9.36-.37,2.44-1.25,9.83-1.76,13.19s-3.91,3.3-4,1.87c-.4-6.38-1.55-11.31-3-13.56A2,2,0,0,1,437.75,313.05Z" style="fill:#263238"></path><path d="M438.75,315.92a2.48,2.48,0,0,1-.64,1.48,1.15,1.15,0,0,1-1.08.24.57.57,0,0,1-.48-.41c-.33-1,1.66-3.3,1.89-3.56a.19.19,0,0,1,.2-.07.22.22,0,0,1,.14.17A9.65,9.65,0,0,1,438.75,315.92Zm-1.84.94a.43.43,0,0,0,0,.25c0,.05.05.12.21.16a.81.81,0,0,0,.72-.15,4,4,0,0,0,.58-2.84A7.75,7.75,0,0,0,436.91,316.86Z" style="fill:#FFC100"></path><path d="M438.78,313.82v.1c-.58.75-2.59,2.08-3.41,1.79A.64.64,0,0,1,435,315a1,1,0,0,1,.37-.76c.9-.82,3.23-.66,3.35-.65a.2.2,0,0,1,.16.12A.26.26,0,0,1,438.78,313.82Zm-3.5,1.12V315c0,.24.1.29.15.3.5.19,2-.63,2.74-1.36a4.54,4.54,0,0,0-2.65.56A.73.73,0,0,0,435.28,314.94Z" style="fill:#FFC100"></path><polygon points="429.71 294.69 424.18 300.63 431.51 306.97 437.04 301.03 429.71 294.69" style="opacity:0.2;isolation:isolate"></polygon><path d="M435.21,296.6l-9.5,9.7s-37-23.14-50.07-38c-5.53-6.29-26-34.49-30.89-41.24l-1.06-1.46L318.51,207l18.32-28.62s8,2.33,17,10.35c1.33,1.18,2.68,2.49,4,3.94a67.81,67.81,0,0,1,12.43,19.17q1.2,2.72,2.25,5.72C387.88,261.5,435.21,296.6,435.21,296.6Z" style="fill:#263238"></path><path d="M270.79,190.83s8.77-15,36.83-17.3,49.84,14.21,49.84,14.21,5.57,35.07-22.79,44.79c-10.24,3.51-21.75-2.18-21.75-2.18l-2.53-11.75S274.2,201.88,270.79,190.83Z" style="fill:#FFC100"></path><path d="M356.4,207.77c-1.66,6.8-5,14-11.65,19.3a32.93,32.93,0,0,1-10.08,5.46c-10.24,3.51-21.75-2.18-21.75-2.18l-2.53-11.75s-36.19-16.72-39.6-27.77c0,0,8.77-15,36.83-17.3s49.84,14.21,49.84,14.21,0,.22.08.63c.1.8.26,2.31.32,4.31A55.68,55.68,0,0,1,356.4,207.77Z" style="fill:#fff;opacity:0.8"></path><path d="M336,170.57s21.48-9.44,26.47-10.92,40.42,29.06,40.42,29.06,11.94,2.87,13,4.39-2.3,10.69-4.26,10-10.56-.38-12.61-2.68-1.42-6.61-1.42-6.61-34.43-20.16-36.43-21.08C359.65,172,340,182.4,340,182.4Z" style="fill:#b97964"></path><path d="M370.29,211.85a134.89,134.89,0,0,1-13.89-4.08c-21.19-7.55-26.61-16.65-26.61-16.65l24-2.38,3.71-.37c.1.8.26,2.31.32,4.31A67.81,67.81,0,0,1,370.29,211.85Z" style="opacity:0.2;isolation:isolate"></path><path d="M292.64,195.08a10.4,10.4,0,0,1-5.47-.53c-5.45-2-8.55-7.94-8.55-7.94,1.43-7.53,8.94-10.38,15.37-10.84a20.2,20.2,0,0,1,8.11.82C307.34,178.64,301.43,193.59,292.64,195.08Z" style="fill:#b97964"></path><path d="M287.17,194.55c-5.45-2-8.55-7.94-8.55-7.94,1.43-7.53,8.94-10.38,15.37-10.84C294.94,180.16,295.46,188.84,287.17,194.55Z" style="opacity:0.2;isolation:isolate"></path><path d="M276.87,190.89c.37,5.14,9.82,15.68,22.9,22.38,0,0-16.43-3-24.62-13.08s-5.19-13.1,1.67-16Z" style="fill:#FFC100"></path><path d="M276.87,190.89c.37,5.14,9.82,15.68,22.9,22.38,0,0-16.43-3-24.62-13.08s-5.19-13.1,1.67-16Z" style="fill:#fff;opacity:0.4"></path><path d="M293.53,174.7c11.57-.92,10.43,3.53,16.35,10.76,12.07,14.73,76.85,12.67,76.85,12.67S373.37,180.14,352,174,293.53,174.7,293.53,174.7Z" style="fill:#FFC100"></path><path d="M293.53,174.7c11.57-.92,10.43,3.53,16.35,10.76,12.07,14.73,76.85,12.67,76.85,12.67S373.37,180.14,352,174,293.53,174.7,293.53,174.7Z" style="fill:#fff;opacity:0.4"></path><path d="M270,190.89s-.11-11.47,15.71-17.58,29.92,8.59,29.92,8.59l-5.9-.54.2,4.1s-10-7.9-19.35-7.07-13.66,12.5-13.66,12.5l-4-4Z" style="fill:#FFC100"></path><path d="M270,190.89s-.11-11.47,15.71-17.58,29.92,8.59,29.92,8.59l-5.9-.54.2,4.1s-10-7.9-19.35-7.07-13.66,12.5-13.66,12.5l-4-4Z" style="fill:#fff;opacity:0.5"></path><path d="M270.22,160.81s-2,11.13,3.83,15.58,6.36-16.34,6.36-16.34Z" style="fill:#263238"></path><path d="M291,185.72a10.14,10.14,0,0,1-11.75,3.62,11.24,11.24,0,0,1-6.3-5.42,9.72,9.72,0,0,1-.51-1.08c-2.74-6.9-3.36-18.87,4-23.15A11,11,0,0,1,293,168.4C293.69,176.41,294.47,181.08,291,185.72Z" style="fill:#b97964"></path><path d="M281.27,172.36c.14.64-.17,1.22-.6,1.28s-.84-.42-.94-1.06.18-1.22.6-1.28S281.17,171.71,281.27,172.36Z" style="fill:#263238"></path><path d="M274,173.42c.14.63-.18,1.22-.6,1.28s-.84-.42-.93-1.07.18-1.22.6-1.28S273.86,172.8,274,173.42Z" style="fill:#263238"></path><path d="M276.32,173.4a23,23,0,0,1-2.29,6,3.75,3.75,0,0,0,3.19.14Z" style="fill:#a24e3f"></path><path d="M283.2,169.67a.4.4,0,0,1-.39-.1,3.12,3.12,0,0,0-2.62-.92.38.38,0,0,1-.16-.75h0a3.87,3.87,0,0,1,3.32,1.12.38.38,0,0,1,0,.54h0Z" style="fill:#263238"></path><path d="M270.45,171.35a.37.37,0,0,1-.23,0,.38.38,0,0,1-.25-.47h0a3.82,3.82,0,0,1,2.43-2.53.39.39,0,0,1,.47.27h0a.4.4,0,0,1-.27.47h0a3.09,3.09,0,0,0-1.89,2A.43.43,0,0,1,270.45,171.35Z" style="fill:#263238"></path><path d="M285.76,159.33l-.1,3.56a2.64,2.64,0,0,1,1.64,3.18c-.86,3.08,1.27,7.51,3.72,9.13,0,0-.06-1.29,1.06-1.09s2.3,6.22,2.3,6.22,2.73-.89,3.87-8.08c1.05-6.65-1.74-10.3-3.31-12.68Z" style="fill:#263238"></path><path d="M276.87,181.54a19.34,19.34,0,0,1,1.13,2.73l.52-.08c2.33-.4,3.28-1.35,3.62-2.29a3,3,0,0,0,.14-1.43,2.91,2.91,0,0,0-.21-.8,11.27,11.27,0,0,1-4.4,1.72C277.18,181.5,276.87,181.54,276.87,181.54Z" style="fill:#263238"></path><path d="M277.67,181.39l.35.8c2.19-.38,3.68-.94,4.26-1.72a2.91,2.91,0,0,0-.21-.8A11.27,11.27,0,0,1,277.67,181.39Z" style="fill:#fff"></path><path d="M278.52,184.19c2.33-.4,3.28-1.35,3.62-2.29a7.69,7.69,0,0,0-2.5.95A2.9,2.9,0,0,0,278.52,184.19Z" style="fill:#de5753"></path><path d="M285.66,162.89c-2.64-.61-9.11-.23-13.73,2.17,0,0-2.12-.19-3.21-4.84s2.06-7.1,3-6.51-1.17,1.42-1.26,2.73c0,0,5.5-2.32,6.23-5.39s2.91-4,3.84-2.82S278,152.6,278,152.6s4,.15,6.09-2.88,5.61-4.46,6.5-3.25-3.57,2.23-4.79,3.76c0,0,6.77-2.56,9.68-.6s2.32,2.82.27,2.35a7.85,7.85,0,0,0-4.49.81s5.18,0,7.12,2.18,4.19.95,4.72,2.12-3.61,1.54-3.61,1.54,2.31,1.93,4.81,1.14,3.33,3.06-2.57,1.91c0,0,.15,4,2.3,4.5s1.25,2.24-.28,1.92-2.95-2.34-2.95-2.34,2.59,4.47,1.48,6-2-2.11-2-2.11,1.25,5.73.38,6-1.9-1.85-1.9-1.85,1.22,4-.43,4.7a10.07,10.07,0,0,1-4,.45S290.34,164,285.66,162.89Z" style="fill:#263238"></path><path d="M297.43,174.42a7.66,7.66,0,0,1-3.79,4.45c-2.39,1.21-4.1-.81-3.88-3.34.23-2.25,1.72-5.66,4.34-5.78S298.16,172.05,297.43,174.42Z" style="fill:#b97964"></path><path d="M321.35,171.83s-1,12.77,14.64,16.51l20-10.17-4.82-14.77Z" style="fill:#FFC100"></path><path d="M321.35,171.83s-1,12.77,14.64,16.51l20-10.17-4.82-14.77Z" style="fill:#fff;opacity:0.5"></path></g></g></svg>
